<svg width="1016" height="1024" viewBox="0 0 1016 1024" fill="none" xmlns="http://www.w3.org/2000/svg">
<rect width="1016" height="1024" fill="#FAFAFA"/>
<path d="M291.64 520C291.48 520 291.344 519.952 291.232 519.856C291.136 519.744 291.088 519.608 291.088 519.448V503.776C291.088 503.6 291.136 503.464 291.232 503.368C291.344 503.256 291.48 503.2 291.64 503.2H297.736C299.544 503.2 300.968 503.64 302.008 504.52C303.048 505.4 303.568 506.672 303.568 508.336C303.568 510 303.048 511.272 302.008 512.152C300.984 513.016 299.56 513.448 297.736 513.448H293.488V519.448C293.488 519.608 293.432 519.744 293.32 519.856C293.208 519.952 293.072 520 292.912 520H291.64ZM297.616 511.432C298.784 511.432 299.664 511.168 300.256 510.64C300.864 510.112 301.168 509.344 301.168 508.336C301.168 507.328 300.872 506.56 300.28 506.032C299.688 505.488 298.8 505.216 297.616 505.216H293.464V511.432H297.616ZM306.75 520C306.59 520 306.454 519.952 306.342 519.856C306.246 519.744 306.198 519.608 306.198 519.448V503.512C306.198 503.352 306.246 503.224 306.342 503.128C306.454 503.016 306.59 502.96 306.75 502.96H307.878C308.038 502.96 308.166 503.016 308.262 503.128C308.374 503.224 308.43 503.352 308.43 503.512V519.448C308.43 519.608 308.374 519.744 308.262 519.856C308.166 519.952 308.038 520 307.878 520H306.75ZM317.002 520.24C315.354 520.24 314.034 519.736 313.042 518.728C312.066 517.704 311.53 516.312 311.434 514.552L311.41 513.736L311.434 512.944C311.546 511.216 312.09 509.84 313.066 508.816C314.058 507.792 315.362 507.28 316.978 507.28C318.754 507.28 320.13 507.848 321.106 508.984C322.082 510.104 322.57 511.624 322.57 513.544V513.952C322.57 514.112 322.514 514.248 322.402 514.36C322.306 514.456 322.178 514.504 322.018 514.504H313.714V514.72C313.762 515.76 314.074 516.648 314.65 517.384C315.242 518.104 316.018 518.464 316.978 518.464C317.714 518.464 318.314 518.32 318.778 518.032C319.258 517.728 319.61 517.416 319.834 517.096C319.978 516.904 320.082 516.792 320.146 516.76C320.226 516.712 320.362 516.688 320.554 516.688H321.73C321.874 516.688 321.994 516.728 322.09 516.808C322.186 516.888 322.234 517 322.234 517.144C322.234 517.496 322.01 517.92 321.562 518.416C321.13 518.912 320.514 519.344 319.714 519.712C318.93 520.064 318.026 520.24 317.002 520.24ZM320.29 512.848V512.776C320.29 511.672 319.986 510.776 319.378 510.088C318.786 509.384 317.986 509.032 316.978 509.032C315.97 509.032 315.17 509.384 314.578 510.088C314.002 510.776 313.714 511.672 313.714 512.776V512.848H320.29ZM328.92 520.24C328.136 520.24 327.408 520.08 326.736 519.76C326.064 519.44 325.528 519.008 325.128 518.464C324.744 517.904 324.552 517.288 324.552 516.616C324.552 515.56 324.984 514.696 325.848 514.024C326.728 513.336 327.912 512.888 329.4 512.68L332.976 512.176V511.48C332.976 509.848 332.04 509.032 330.168 509.032C329.464 509.032 328.888 509.184 328.44 509.488C327.992 509.776 327.656 510.12 327.432 510.52C327.384 510.664 327.32 510.768 327.24 510.832C327.176 510.896 327.08 510.928 326.952 510.928H325.92C325.776 510.928 325.648 510.88 325.536 510.784C325.44 510.672 325.392 510.544 325.392 510.4C325.408 510.016 325.584 509.584 325.92 509.104C326.272 508.608 326.808 508.184 327.528 507.832C328.248 507.464 329.136 507.28 330.192 507.28C331.984 507.28 333.272 507.704 334.056 508.552C334.84 509.384 335.232 510.424 335.232 511.672V519.448C335.232 519.608 335.176 519.744 335.064 519.856C334.968 519.952 334.84 520 334.68 520H333.576C333.416 520 333.28 519.952 333.168 519.856C333.072 519.744 333.024 519.608 333.024 519.448V518.416C332.672 518.928 332.16 519.36 331.488 519.712C330.816 520.064 329.96 520.24 328.92 520.24ZM329.424 518.44C330.464 518.44 331.312 518.104 331.968 517.432C332.64 516.744 332.976 515.76 332.976 514.48V513.808L330.192 514.216C329.056 514.376 328.2 514.648 327.624 515.032C327.048 515.4 326.76 515.872 326.76 516.448C326.76 517.088 327.024 517.584 327.552 517.936C328.08 518.272 328.704 518.44 329.424 518.44ZM343.002 520.24C341.882 520.24 340.938 520.064 340.17 519.712C339.418 519.344 338.85 518.928 338.466 518.464C338.098 518 337.914 517.616 337.914 517.312C337.914 517.152 337.97 517.032 338.082 516.952C338.21 516.856 338.338 516.808 338.466 516.808H339.546C339.706 516.808 339.85 516.888 339.978 517.048C340.362 517.496 340.778 517.848 341.226 518.104C341.674 518.36 342.274 518.488 343.026 518.488C343.858 518.488 344.53 518.328 345.042 518.008C345.57 517.672 345.834 517.216 345.834 516.64C345.834 516.256 345.722 515.944 345.498 515.704C345.29 515.448 344.922 515.232 344.394 515.056C343.882 514.864 343.114 514.656 342.09 514.432C340.698 514.128 339.706 513.688 339.114 513.112C338.538 512.536 338.25 511.792 338.25 510.88C338.25 510.272 338.426 509.696 338.778 509.152C339.146 508.592 339.674 508.144 340.362 507.808C341.066 507.456 341.906 507.28 342.882 507.28C343.906 507.28 344.778 507.448 345.498 507.784C346.218 508.12 346.754 508.52 347.106 508.984C347.474 509.432 347.658 509.808 347.658 510.112C347.658 510.256 347.602 510.376 347.49 510.472C347.394 510.568 347.274 510.616 347.13 510.616H346.122C345.93 510.616 345.77 510.536 345.642 510.376C345.386 510.072 345.162 509.84 344.97 509.68C344.794 509.504 344.53 509.352 344.178 509.224C343.842 509.096 343.41 509.032 342.882 509.032C342.114 509.032 341.522 509.2 341.106 509.536C340.69 509.856 340.482 510.28 340.482 510.808C340.482 511.144 340.57 511.432 340.746 511.672C340.922 511.896 341.258 512.104 341.754 512.296C342.266 512.488 343.002 512.688 343.962 512.896C345.482 513.216 346.554 513.68 347.178 514.288C347.818 514.88 348.138 515.64 348.138 516.568C348.138 517.256 347.938 517.88 347.538 518.44C347.138 519 346.546 519.44 345.762 519.76C344.994 520.08 344.074 520.24 343.002 520.24ZM355.909 520.24C354.261 520.24 352.941 519.736 351.949 518.728C350.973 517.704 350.437 516.312 350.341 514.552L350.317 513.736L350.341 512.944C350.453 511.216 350.997 509.84 351.973 508.816C352.965 507.792 354.269 507.28 355.885 507.28C357.661 507.28 359.037 507.848 360.013 508.984C360.989 510.104 361.477 511.624 361.477 513.544V513.952C361.477 514.112 361.421 514.248 361.309 514.36C361.213 514.456 361.085 514.504 360.925 514.504H352.621V514.72C352.669 515.76 352.981 516.648 353.557 517.384C354.149 518.104 354.925 518.464 355.885 518.464C356.621 518.464 357.221 518.32 357.685 518.032C358.165 517.728 358.517 517.416 358.741 517.096C358.885 516.904 358.989 516.792 359.053 516.76C359.133 516.712 359.269 516.688 359.461 516.688H360.637C360.781 516.688 360.901 516.728 360.997 516.808C361.093 516.888 361.141 517 361.141 517.144C361.141 517.496 360.917 517.92 360.469 518.416C360.037 518.912 359.421 519.344 358.621 519.712C357.837 520.064 356.933 520.24 355.909 520.24ZM359.197 512.848V512.776C359.197 511.672 358.893 510.776 358.285 510.088C357.693 509.384 356.893 509.032 355.885 509.032C354.877 509.032 354.077 509.384 353.485 510.088C352.909 510.776 352.621 511.672 352.621 512.776V512.848H359.197ZM374.549 520.24C373.429 520.24 372.485 520.064 371.717 519.712C370.965 519.344 370.397 518.928 370.013 518.464C369.645 518 369.461 517.616 369.461 517.312C369.461 517.152 369.517 517.032 369.629 516.952C369.757 516.856 369.885 516.808 370.013 516.808H371.093C371.253 516.808 371.397 516.888 371.525 517.048C371.909 517.496 372.325 517.848 372.773 518.104C373.221 518.36 373.821 518.488 374.573 518.488C375.405 518.488 376.077 518.328 376.589 518.008C377.117 517.672 377.381 517.216 377.381 516.64C377.381 516.256 377.269 515.944 377.045 515.704C376.837 515.448 376.469 515.232 375.941 515.056C375.429 514.864 374.661 514.656 373.637 514.432C372.245 514.128 371.253 513.688 370.661 513.112C370.085 512.536 369.797 511.792 369.797 510.88C369.797 510.272 369.973 509.696 370.325 509.152C370.693 508.592 371.221 508.144 371.909 507.808C372.613 507.456 373.453 507.28 374.429 507.28C375.453 507.28 376.325 507.448 377.045 507.784C377.765 508.12 378.301 508.52 378.653 508.984C379.021 509.432 379.205 509.808 379.205 510.112C379.205 510.256 379.149 510.376 379.037 510.472C378.941 510.568 378.821 510.616 378.677 510.616H377.669C377.477 510.616 377.317 510.536 377.189 510.376C376.933 510.072 376.709 509.84 376.517 509.68C376.341 509.504 376.077 509.352 375.725 509.224C375.389 509.096 374.957 509.032 374.429 509.032C373.661 509.032 373.069 509.2 372.653 509.536C372.237 509.856 372.029 510.28 372.029 510.808C372.029 511.144 372.117 511.432 372.293 511.672C372.469 511.896 372.805 512.104 373.301 512.296C373.813 512.488 374.549 512.688 375.509 512.896C377.029 513.216 378.101 513.68 378.725 514.288C379.365 514.88 379.685 515.64 379.685 516.568C379.685 517.256 379.485 517.88 379.085 518.44C378.685 519 378.093 519.44 377.309 519.76C376.541 520.08 375.621 520.24 374.549 520.24ZM387.456 520.24C385.808 520.24 384.488 519.736 383.496 518.728C382.52 517.704 381.984 516.312 381.888 514.552L381.864 513.736L381.888 512.944C382 511.216 382.544 509.84 383.52 508.816C384.512 507.792 385.816 507.28 387.432 507.28C389.208 507.28 390.584 507.848 391.56 508.984C392.536 510.104 393.023 511.624 393.023 513.544V513.952C393.023 514.112 392.968 514.248 392.856 514.36C392.76 514.456 392.632 514.504 392.472 514.504H384.168V514.72C384.216 515.76 384.528 516.648 385.104 517.384C385.696 518.104 386.472 518.464 387.432 518.464C388.168 518.464 388.768 518.32 389.232 518.032C389.712 517.728 390.064 517.416 390.288 517.096C390.432 516.904 390.536 516.792 390.6 516.76C390.68 516.712 390.816 516.688 391.008 516.688H392.184C392.328 516.688 392.448 516.728 392.544 516.808C392.64 516.888 392.688 517 392.688 517.144C392.688 517.496 392.464 517.92 392.016 518.416C391.584 518.912 390.968 519.344 390.168 519.712C389.384 520.064 388.48 520.24 387.456 520.24ZM390.744 512.848V512.776C390.744 511.672 390.44 510.776 389.832 510.088C389.24 509.384 388.44 509.032 387.432 509.032C386.424 509.032 385.624 509.384 385.032 510.088C384.456 510.776 384.168 511.672 384.168 512.776V512.848H390.744ZM396.469 520C396.309 520 396.173 519.952 396.061 519.856C395.965 519.744 395.917 519.608 395.917 519.448V503.512C395.917 503.352 395.965 503.224 396.061 503.128C396.173 503.016 396.309 502.96 396.469 502.96H397.597C397.757 502.96 397.885 503.016 397.981 503.128C398.093 503.224 398.149 503.352 398.149 503.512V519.448C398.149 519.608 398.093 519.744 397.981 519.856C397.885 519.952 397.757 520 397.597 520H396.469ZM406.721 520.24C405.073 520.24 403.753 519.736 402.761 518.728C401.785 517.704 401.249 516.312 401.153 514.552L401.129 513.736L401.153 512.944C401.265 511.216 401.809 509.84 402.785 508.816C403.777 507.792 405.081 507.28 406.697 507.28C408.473 507.28 409.849 507.848 410.825 508.984C411.801 510.104 412.289 511.624 412.289 513.544V513.952C412.289 514.112 412.233 514.248 412.121 514.36C412.025 514.456 411.897 514.504 411.737 514.504H403.433V514.72C403.481 515.76 403.793 516.648 404.369 517.384C404.961 518.104 405.737 518.464 406.697 518.464C407.433 518.464 408.033 518.32 408.497 518.032C408.977 517.728 409.329 517.416 409.553 517.096C409.697 516.904 409.801 516.792 409.865 516.76C409.945 516.712 410.081 516.688 410.273 516.688H411.449C411.593 516.688 411.713 516.728 411.809 516.808C411.905 516.888 411.953 517 411.953 517.144C411.953 517.496 411.729 517.92 411.281 518.416C410.849 518.912 410.233 519.344 409.433 519.712C408.649 520.064 407.745 520.24 406.721 520.24ZM410.009 512.848V512.776C410.009 511.672 409.705 510.776 409.097 510.088C408.505 509.384 407.705 509.032 406.697 509.032C405.689 509.032 404.889 509.384 404.297 510.088C403.721 510.776 403.433 511.672 403.433 512.776V512.848H410.009ZM420.199 520.24C418.487 520.24 417.143 519.76 416.167 518.8C415.207 517.824 414.695 516.464 414.631 514.72L414.607 513.76L414.631 512.8C414.695 511.056 415.207 509.704 416.167 508.744C417.143 507.768 418.487 507.28 420.199 507.28C421.351 507.28 422.327 507.488 423.127 507.904C423.927 508.32 424.519 508.832 424.903 509.44C425.303 510.048 425.519 510.656 425.551 511.264C425.567 511.424 425.519 511.552 425.407 511.648C425.295 511.744 425.159 511.792 424.999 511.792H423.847C423.687 511.792 423.567 511.76 423.487 511.696C423.407 511.632 423.327 511.504 423.247 511.312C422.975 510.544 422.591 510 422.095 509.68C421.599 509.344 420.975 509.176 420.223 509.176C419.231 509.176 418.439 509.488 417.847 510.112C417.271 510.72 416.959 511.656 416.911 512.92L416.887 513.784L416.911 514.6C416.959 515.88 417.271 516.824 417.847 517.432C418.423 518.04 419.215 518.344 420.223 518.344C420.975 518.344 421.599 518.184 422.095 517.864C422.591 517.528 422.975 516.976 423.247 516.208C423.327 516.016 423.407 515.888 423.487 515.824C423.567 515.744 423.687 515.704 423.847 515.704H424.999C425.159 515.704 425.295 515.76 425.407 515.872C425.519 515.968 425.567 516.096 425.551 516.256C425.519 516.848 425.303 517.456 424.903 518.08C424.519 518.688 423.927 519.2 423.127 519.616C422.343 520.032 421.367 520.24 420.199 520.24ZM433.273 520C430.745 520 429.481 518.592 429.481 515.776V509.44H427.609C427.449 509.44 427.313 509.392 427.201 509.296C427.105 509.184 427.057 509.048 427.057 508.888V508.072C427.057 507.912 427.105 507.784 427.201 507.688C427.313 507.576 427.449 507.52 427.609 507.52H429.481V503.512C429.481 503.352 429.529 503.224 429.625 503.128C429.737 503.016 429.873 502.96 430.033 502.96H431.161C431.321 502.96 431.449 503.016 431.545 503.128C431.657 503.224 431.713 503.352 431.713 503.512V507.52H434.689C434.849 507.52 434.977 507.576 435.073 507.688C435.185 507.784 435.241 507.912 435.241 508.072V508.888C435.241 509.048 435.185 509.184 435.073 509.296C434.977 509.392 434.849 509.44 434.689 509.44H431.713V515.608C431.713 516.408 431.849 517.016 432.121 517.432C432.393 517.832 432.841 518.032 433.465 518.032H434.929C435.089 518.032 435.217 518.088 435.313 518.2C435.425 518.296 435.481 518.424 435.481 518.584V519.448C435.481 519.608 435.425 519.744 435.313 519.856C435.217 519.952 435.089 520 434.929 520H433.273ZM447.139 520.24C446.355 520.24 445.627 520.08 444.955 519.76C444.283 519.44 443.747 519.008 443.347 518.464C442.963 517.904 442.771 517.288 442.771 516.616C442.771 515.56 443.203 514.696 444.067 514.024C444.947 513.336 446.131 512.888 447.619 512.68L451.195 512.176V511.48C451.195 509.848 450.259 509.032 448.387 509.032C447.683 509.032 447.107 509.184 446.659 509.488C446.211 509.776 445.875 510.12 445.651 510.52C445.603 510.664 445.539 510.768 445.459 510.832C445.395 510.896 445.299 510.928 445.171 510.928H444.139C443.995 510.928 443.867 510.88 443.755 510.784C443.659 510.672 443.611 510.544 443.611 510.4C443.627 510.016 443.803 509.584 444.139 509.104C444.491 508.608 445.027 508.184 445.747 507.832C446.467 507.464 447.355 507.28 448.411 507.28C450.203 507.28 451.491 507.704 452.275 508.552C453.059 509.384 453.451 510.424 453.451 511.672V519.448C453.451 519.608 453.395 519.744 453.283 519.856C453.187 519.952 453.059 520 452.899 520H451.795C451.635 520 451.499 519.952 451.387 519.856C451.291 519.744 451.243 519.608 451.243 519.448V518.416C450.891 518.928 450.379 519.36 449.707 519.712C449.035 520.064 448.179 520.24 447.139 520.24ZM447.643 518.44C448.683 518.44 449.531 518.104 450.187 517.432C450.859 516.744 451.195 515.76 451.195 514.48V513.808L448.411 514.216C447.275 514.376 446.419 514.648 445.843 515.032C445.267 515.4 444.979 515.872 444.979 516.448C444.979 517.088 445.243 517.584 445.771 517.936C446.299 518.272 446.923 518.44 447.643 518.44ZM467.824 520.24C466.112 520.24 464.768 519.76 463.792 518.8C462.832 517.824 462.32 516.464 462.256 514.72L462.232 513.76L462.256 512.8C462.32 511.056 462.832 509.704 463.792 508.744C464.768 507.768 466.112 507.28 467.824 507.28C468.976 507.28 469.952 507.488 470.752 507.904C471.552 508.32 472.144 508.832 472.528 509.44C472.928 510.048 473.144 510.656 473.176 511.264C473.192 511.424 473.144 511.552 473.032 511.648C472.92 511.744 472.784 511.792 472.624 511.792H471.472C471.312 511.792 471.192 511.76 471.112 511.696C471.032 511.632 470.952 511.504 470.872 511.312C470.6 510.544 470.216 510 469.72 509.68C469.224 509.344 468.6 509.176 467.848 509.176C466.856 509.176 466.064 509.488 465.472 510.112C464.896 510.72 464.584 511.656 464.536 512.92L464.512 513.784L464.536 514.6C464.584 515.88 464.896 516.824 465.472 517.432C466.048 518.04 466.84 518.344 467.848 518.344C468.6 518.344 469.224 518.184 469.72 517.864C470.216 517.528 470.6 516.976 470.872 516.208C470.952 516.016 471.032 515.888 471.112 515.824C471.192 515.744 471.312 515.704 471.472 515.704H472.624C472.784 515.704 472.92 515.76 473.032 515.872C473.144 515.968 473.192 516.096 473.176 516.256C473.144 516.848 472.928 517.456 472.528 518.08C472.144 518.688 471.552 519.2 470.752 519.616C469.968 520.032 468.992 520.24 467.824 520.24ZM476.602 520C476.442 520 476.306 519.952 476.194 519.856C476.098 519.744 476.05 519.608 476.05 519.448V503.512C476.05 503.352 476.098 503.224 476.194 503.128C476.306 503.016 476.442 502.96 476.602 502.96H477.802C477.962 502.96 478.09 503.016 478.186 503.128C478.298 503.224 478.354 503.352 478.354 503.512V509.104C478.818 508.512 479.362 508.064 479.986 507.76C480.61 507.44 481.386 507.28 482.314 507.28C483.85 507.28 485.042 507.776 485.89 508.768C486.754 509.744 487.186 511.048 487.186 512.68V519.448C487.186 519.608 487.13 519.744 487.018 519.856C486.922 519.952 486.794 520 486.634 520H485.434C485.274 520 485.138 519.952 485.026 519.856C484.93 519.744 484.882 519.608 484.882 519.448V512.8C484.882 511.664 484.602 510.784 484.042 510.16C483.498 509.536 482.706 509.224 481.666 509.224C480.658 509.224 479.85 509.544 479.242 510.184C478.65 510.808 478.354 511.68 478.354 512.8V519.448C478.354 519.608 478.298 519.744 478.186 519.856C478.09 519.952 477.962 520 477.802 520H476.602ZM494.131 520.24C493.347 520.24 492.619 520.08 491.947 519.76C491.275 519.44 490.739 519.008 490.339 518.464C489.955 517.904 489.763 517.288 489.763 516.616C489.763 515.56 490.195 514.696 491.059 514.024C491.939 513.336 493.123 512.888 494.611 512.68L498.187 512.176V511.48C498.187 509.848 497.251 509.032 495.379 509.032C494.675 509.032 494.099 509.184 493.651 509.488C493.203 509.776 492.867 510.12 492.643 510.52C492.595 510.664 492.531 510.768 492.451 510.832C492.387 510.896 492.291 510.928 492.163 510.928H491.131C490.987 510.928 490.859 510.88 490.747 510.784C490.651 510.672 490.603 510.544 490.603 510.4C490.619 510.016 490.795 509.584 491.131 509.104C491.483 508.608 492.019 508.184 492.739 507.832C493.459 507.464 494.347 507.28 495.403 507.28C497.195 507.28 498.483 507.704 499.267 508.552C500.051 509.384 500.443 510.424 500.443 511.672V519.448C500.443 519.608 500.387 519.744 500.275 519.856C500.179 519.952 500.051 520 499.891 520H498.787C498.627 520 498.491 519.952 498.379 519.856C498.283 519.744 498.235 519.608 498.235 519.448V518.416C497.883 518.928 497.371 519.36 496.699 519.712C496.027 520.064 495.171 520.24 494.131 520.24ZM494.635 518.44C495.675 518.44 496.523 518.104 497.179 517.432C497.851 516.744 498.187 515.76 498.187 514.48V513.808L495.403 514.216C494.267 514.376 493.411 514.648 492.835 515.032C492.259 515.4 491.971 515.872 491.971 516.448C491.971 517.088 492.235 517.584 492.763 517.936C493.291 518.272 493.915 518.44 494.635 518.44ZM508.648 520C506.12 520 504.856 518.592 504.856 515.776V509.44H502.984C502.824 509.44 502.688 509.392 502.576 509.296C502.48 509.184 502.432 509.048 502.432 508.888V508.072C502.432 507.912 502.48 507.784 502.576 507.688C502.688 507.576 502.824 507.52 502.984 507.52H504.856V503.512C504.856 503.352 504.904 503.224 505 503.128C505.112 503.016 505.248 502.96 505.408 502.96H506.536C506.696 502.96 506.824 503.016 506.92 503.128C507.032 503.224 507.088 503.352 507.088 503.512V507.52H510.064C510.224 507.52 510.352 507.576 510.448 507.688C510.56 507.784 510.616 507.912 510.616 508.072V508.888C510.616 509.048 510.56 509.184 510.448 509.296C510.352 509.392 510.224 509.44 510.064 509.44H507.088V515.608C507.088 516.408 507.224 517.016 507.496 517.432C507.768 517.832 508.216 518.032 508.84 518.032H510.304C510.464 518.032 510.592 518.088 510.688 518.2C510.8 518.296 510.856 518.424 510.856 518.584V519.448C510.856 519.608 510.8 519.744 510.688 519.856C510.592 519.952 510.464 520 510.304 520H508.648ZM523.39 520C520.862 520 519.598 518.592 519.598 515.776V509.44H517.726C517.566 509.44 517.43 509.392 517.318 509.296C517.222 509.184 517.174 509.048 517.174 508.888V508.072C517.174 507.912 517.222 507.784 517.318 507.688C517.43 507.576 517.566 507.52 517.726 507.52H519.598V503.512C519.598 503.352 519.646 503.224 519.742 503.128C519.854 503.016 519.99 502.96 520.15 502.96H521.278C521.438 502.96 521.566 503.016 521.662 503.128C521.774 503.224 521.83 503.352 521.83 503.512V507.52H524.806C524.966 507.52 525.094 507.576 525.19 507.688C525.302 507.784 525.358 507.912 525.358 508.072V508.888C525.358 509.048 525.302 509.184 525.19 509.296C525.094 509.392 524.966 509.44 524.806 509.44H521.83V515.608C521.83 516.408 521.966 517.016 522.238 517.432C522.51 517.832 522.958 518.032 523.582 518.032H525.046C525.206 518.032 525.334 518.088 525.43 518.2C525.542 518.296 525.598 518.424 525.598 518.584V519.448C525.598 519.608 525.542 519.744 525.43 519.856C525.334 519.952 525.206 520 525.046 520H523.39ZM533.005 520.24C531.245 520.24 529.877 519.744 528.901 518.752C527.941 517.76 527.429 516.44 527.365 514.792L527.341 513.76L527.365 512.728C527.429 511.096 527.949 509.784 528.925 508.792C529.901 507.784 531.261 507.28 533.005 507.28C534.749 507.28 536.109 507.784 537.085 508.792C538.061 509.784 538.581 511.096 538.645 512.728C538.661 512.904 538.669 513.248 538.669 513.76C538.669 514.272 538.661 514.616 538.645 514.792C538.581 516.44 538.061 517.76 537.085 518.752C536.125 519.744 534.765 520.24 533.005 520.24ZM533.005 518.392C534.013 518.392 534.805 518.072 535.381 517.432C535.973 516.792 536.293 515.872 536.341 514.672C536.357 514.512 536.365 514.208 536.365 513.76C536.365 513.312 536.357 513.008 536.341 512.848C536.293 511.648 535.973 510.728 535.381 510.088C534.805 509.448 534.013 509.128 533.005 509.128C531.997 509.128 531.197 509.448 530.605 510.088C530.013 510.728 529.701 511.648 529.669 512.848L529.645 513.76L529.669 514.672C529.701 515.872 530.013 516.792 530.605 517.432C531.197 518.072 531.997 518.392 533.005 518.392ZM551.877 520.24C550.757 520.24 549.813 520.064 549.045 519.712C548.293 519.344 547.725 518.928 547.341 518.464C546.973 518 546.789 517.616 546.789 517.312C546.789 517.152 546.845 517.032 546.957 516.952C547.085 516.856 547.213 516.808 547.341 516.808H548.421C548.581 516.808 548.725 516.888 548.853 517.048C549.237 517.496 549.653 517.848 550.101 518.104C550.549 518.36 551.149 518.488 551.901 518.488C552.733 518.488 553.405 518.328 553.917 518.008C554.445 517.672 554.709 517.216 554.709 516.64C554.709 516.256 554.597 515.944 554.373 515.704C554.165 515.448 553.797 515.232 553.269 515.056C552.757 514.864 551.989 514.656 550.965 514.432C549.573 514.128 548.581 513.688 547.989 513.112C547.413 512.536 547.125 511.792 547.125 510.88C547.125 510.272 547.301 509.696 547.653 509.152C548.021 508.592 548.549 508.144 549.237 507.808C549.941 507.456 550.781 507.28 551.757 507.28C552.781 507.28 553.653 507.448 554.373 507.784C555.093 508.12 555.629 508.52 555.981 508.984C556.349 509.432 556.533 509.808 556.533 510.112C556.533 510.256 556.477 510.376 556.365 510.472C556.269 510.568 556.149 510.616 556.005 510.616H554.997C554.805 510.616 554.645 510.536 554.517 510.376C554.261 510.072 554.037 509.84 553.845 509.68C553.669 509.504 553.405 509.352 553.053 509.224C552.717 509.096 552.285 509.032 551.757 509.032C550.989 509.032 550.397 509.2 549.981 509.536C549.565 509.856 549.357 510.28 549.357 510.808C549.357 511.144 549.445 511.432 549.621 511.672C549.797 511.896 550.133 512.104 550.629 512.296C551.141 512.488 551.877 512.688 552.837 512.896C554.357 513.216 555.429 513.68 556.053 514.288C556.693 514.88 557.013 515.64 557.013 516.568C557.013 517.256 556.813 517.88 556.413 518.44C556.013 519 555.421 519.44 554.637 519.76C553.869 520.08 552.949 520.24 551.877 520.24ZM564.64 520C562.112 520 560.848 518.592 560.848 515.776V509.44H558.976C558.816 509.44 558.68 509.392 558.568 509.296C558.472 509.184 558.424 509.048 558.424 508.888V508.072C558.424 507.912 558.472 507.784 558.568 507.688C558.68 507.576 558.816 507.52 558.976 507.52H560.848V503.512C560.848 503.352 560.896 503.224 560.992 503.128C561.104 503.016 561.24 502.96 561.4 502.96H562.528C562.688 502.96 562.816 503.016 562.912 503.128C563.024 503.224 563.08 503.352 563.08 503.512V507.52H566.056C566.216 507.52 566.344 507.576 566.44 507.688C566.552 507.784 566.608 507.912 566.608 508.072V508.888C566.608 509.048 566.552 509.184 566.44 509.296C566.344 509.392 566.216 509.44 566.056 509.44H563.08V515.608C563.08 516.408 563.216 517.016 563.488 517.432C563.76 517.832 564.208 518.032 564.832 518.032H566.296C566.456 518.032 566.584 518.088 566.68 518.2C566.792 518.296 566.848 518.424 566.848 518.584V519.448C566.848 519.608 566.792 519.744 566.68 519.856C566.584 519.952 566.456 520 566.296 520H564.64ZM572.623 520.24C571.839 520.24 571.111 520.08 570.439 519.76C569.767 519.44 569.231 519.008 568.831 518.464C568.447 517.904 568.255 517.288 568.255 516.616C568.255 515.56 568.687 514.696 569.551 514.024C570.431 513.336 571.615 512.888 573.103 512.68L576.679 512.176V511.48C576.679 509.848 575.743 509.032 573.871 509.032C573.167 509.032 572.591 509.184 572.143 509.488C571.695 509.776 571.359 510.12 571.135 510.52C571.087 510.664 571.023 510.768 570.943 510.832C570.879 510.896 570.783 510.928 570.655 510.928H569.623C569.479 510.928 569.351 510.88 569.239 510.784C569.143 510.672 569.095 510.544 569.095 510.4C569.111 510.016 569.287 509.584 569.623 509.104C569.975 508.608 570.511 508.184 571.231 507.832C571.951 507.464 572.839 507.28 573.895 507.28C575.687 507.28 576.975 507.704 577.759 508.552C578.543 509.384 578.935 510.424 578.935 511.672V519.448C578.935 519.608 578.879 519.744 578.767 519.856C578.671 519.952 578.543 520 578.383 520H577.279C577.119 520 576.983 519.952 576.871 519.856C576.775 519.744 576.727 519.608 576.727 519.448V518.416C576.375 518.928 575.863 519.36 575.191 519.712C574.519 520.064 573.663 520.24 572.623 520.24ZM573.127 518.44C574.167 518.44 575.015 518.104 575.671 517.432C576.343 516.744 576.679 515.76 576.679 514.48V513.808L573.895 514.216C572.759 514.376 571.903 514.648 571.327 515.032C570.751 515.4 570.463 515.872 570.463 516.448C570.463 517.088 570.727 517.584 571.255 517.936C571.783 518.272 572.407 518.44 573.127 518.44ZM582.937 520C582.777 520 582.641 519.952 582.529 519.856C582.433 519.744 582.385 519.608 582.385 519.448V508.096C582.385 507.936 582.433 507.8 582.529 507.688C582.641 507.576 582.777 507.52 582.937 507.52H584.041C584.201 507.52 584.337 507.576 584.449 507.688C584.561 507.8 584.617 507.936 584.617 508.096V509.152C585.273 508.064 586.393 507.52 587.977 507.52H588.913C589.073 507.52 589.201 507.576 589.297 507.688C589.409 507.784 589.465 507.912 589.465 508.072V509.056C589.465 509.216 589.409 509.344 589.297 509.44C589.201 509.536 589.073 509.584 588.913 509.584H587.473C586.609 509.584 585.929 509.84 585.433 510.352C584.937 510.848 584.689 511.528 584.689 512.392V519.448C584.689 519.608 584.633 519.744 584.521 519.856C584.409 519.952 584.273 520 584.113 520H582.937ZM596.375 520C593.847 520 592.583 518.592 592.583 515.776V509.44H590.711C590.551 509.44 590.415 509.392 590.303 509.296C590.207 509.184 590.159 509.048 590.159 508.888V508.072C590.159 507.912 590.207 507.784 590.303 507.688C590.415 507.576 590.551 507.52 590.711 507.52H592.583V503.512C592.583 503.352 592.631 503.224 592.727 503.128C592.839 503.016 592.975 502.96 593.135 502.96H594.263C594.423 502.96 594.551 503.016 594.647 503.128C594.759 503.224 594.815 503.352 594.815 503.512V507.52H597.791C597.951 507.52 598.079 507.576 598.175 507.688C598.287 507.784 598.343 507.912 598.343 508.072V508.888C598.343 509.048 598.287 509.184 598.175 509.296C598.079 509.392 597.951 509.44 597.791 509.44H594.815V515.608C594.815 516.408 594.951 517.016 595.223 517.432C595.495 517.832 595.943 518.032 596.567 518.032H598.031C598.191 518.032 598.319 518.088 598.415 518.2C598.527 518.296 598.583 518.424 598.583 518.584V519.448C598.583 519.608 598.527 519.744 598.415 519.856C598.319 519.952 598.191 520 598.031 520H596.375ZM607.312 520C607.152 520 607.016 519.952 606.904 519.856C606.808 519.744 606.76 519.608 606.76 519.448V508.072C606.76 507.912 606.808 507.784 606.904 507.688C607.016 507.576 607.152 507.52 607.312 507.52H608.392C608.552 507.52 608.68 507.576 608.776 507.688C608.888 507.784 608.944 507.912 608.944 508.072V508.912C609.776 507.824 610.936 507.28 612.424 507.28C614.2 507.28 615.456 508.016 616.192 509.488C616.576 508.816 617.12 508.28 617.824 507.88C618.528 507.48 619.32 507.28 620.2 507.28C621.512 507.28 622.584 507.728 623.416 508.624C624.248 509.52 624.664 510.816 624.664 512.512V519.448C624.664 519.608 624.608 519.744 624.496 519.856C624.4 519.952 624.272 520 624.112 520H622.984C622.824 520 622.688 519.952 622.576 519.856C622.48 519.744 622.432 519.608 622.432 519.448V512.728C622.432 511.48 622.168 510.584 621.64 510.04C621.128 509.496 620.448 509.224 619.6 509.224C618.848 509.224 618.2 509.504 617.656 510.064C617.112 510.608 616.84 511.496 616.84 512.728V519.448C616.84 519.608 616.784 519.744 616.672 519.856C616.576 519.952 616.448 520 616.288 520H615.16C615 520 614.864 519.952 614.752 519.856C614.656 519.744 614.608 519.608 614.608 519.448V512.728C614.608 511.48 614.336 510.584 613.792 510.04C613.264 509.496 612.592 509.224 611.776 509.224C611.024 509.224 610.376 509.504 609.832 510.064C609.288 510.608 609.016 511.488 609.016 512.704V519.448C609.016 519.608 608.96 519.744 608.848 519.856C608.752 519.952 608.624 520 608.464 520H607.312ZM633.081 520.24C631.433 520.24 630.113 519.736 629.121 518.728C628.145 517.704 627.609 516.312 627.513 514.552L627.489 513.736L627.513 512.944C627.625 511.216 628.169 509.84 629.145 508.816C630.137 507.792 631.441 507.28 633.057 507.28C634.833 507.28 636.209 507.848 637.185 508.984C638.161 510.104 638.648 511.624 638.648 513.544V513.952C638.648 514.112 638.593 514.248 638.481 514.36C638.385 514.456 638.257 514.504 638.097 514.504H629.793V514.72C629.841 515.76 630.153 516.648 630.729 517.384C631.321 518.104 632.097 518.464 633.057 518.464C633.793 518.464 634.393 518.32 634.857 518.032C635.337 517.728 635.689 517.416 635.913 517.096C636.057 516.904 636.161 516.792 636.225 516.76C636.305 516.712 636.441 516.688 636.633 516.688H637.809C637.953 516.688 638.073 516.728 638.169 516.808C638.265 516.888 638.312 517 638.312 517.144C638.312 517.496 638.089 517.92 637.641 518.416C637.209 518.912 636.593 519.344 635.793 519.712C635.009 520.064 634.105 520.24 633.081 520.24ZM636.369 512.848V512.776C636.369 511.672 636.065 510.776 635.457 510.088C634.865 509.384 634.065 509.032 633.057 509.032C632.049 509.032 631.249 509.384 630.657 510.088C630.081 510.776 629.793 511.672 629.793 512.776V512.848H636.369ZM645.838 520.24C644.718 520.24 643.774 520.064 643.006 519.712C642.254 519.344 641.686 518.928 641.302 518.464C640.934 518 640.75 517.616 640.75 517.312C640.75 517.152 640.806 517.032 640.918 516.952C641.046 516.856 641.174 516.808 641.302 516.808H642.382C642.542 516.808 642.686 516.888 642.814 517.048C643.198 517.496 643.614 517.848 644.062 518.104C644.51 518.36 645.11 518.488 645.862 518.488C646.694 518.488 647.366 518.328 647.878 518.008C648.406 517.672 648.67 517.216 648.67 516.64C648.67 516.256 648.558 515.944 648.334 515.704C648.126 515.448 647.758 515.232 647.23 515.056C646.718 514.864 645.95 514.656 644.926 514.432C643.534 514.128 642.542 513.688 641.95 513.112C641.374 512.536 641.086 511.792 641.086 510.88C641.086 510.272 641.262 509.696 641.614 509.152C641.982 508.592 642.51 508.144 643.198 507.808C643.902 507.456 644.742 507.28 645.718 507.28C646.742 507.28 647.614 507.448 648.334 507.784C649.054 508.12 649.59 508.52 649.942 508.984C650.31 509.432 650.494 509.808 650.494 510.112C650.494 510.256 650.438 510.376 650.326 510.472C650.23 510.568 650.11 510.616 649.966 510.616H648.958C648.766 510.616 648.606 510.536 648.478 510.376C648.222 510.072 647.998 509.84 647.806 509.68C647.63 509.504 647.366 509.352 647.014 509.224C646.678 509.096 646.246 509.032 645.718 509.032C644.95 509.032 644.358 509.2 643.942 509.536C643.526 509.856 643.318 510.28 643.318 510.808C643.318 511.144 643.406 511.432 643.582 511.672C643.758 511.896 644.094 512.104 644.59 512.296C645.102 512.488 645.838 512.688 646.798 512.896C648.318 513.216 649.39 513.68 650.014 514.288C650.654 514.88 650.974 515.64 650.974 516.568C650.974 517.256 650.774 517.88 650.374 518.44C649.974 519 649.382 519.44 648.598 519.76C647.83 520.08 646.91 520.24 645.838 520.24ZM658.073 520.24C656.953 520.24 656.009 520.064 655.241 519.712C654.489 519.344 653.921 518.928 653.537 518.464C653.169 518 652.985 517.616 652.985 517.312C652.985 517.152 653.041 517.032 653.153 516.952C653.281 516.856 653.409 516.808 653.537 516.808H654.617C654.777 516.808 654.921 516.888 655.049 517.048C655.433 517.496 655.849 517.848 656.297 518.104C656.745 518.36 657.345 518.488 658.097 518.488C658.929 518.488 659.601 518.328 660.113 518.008C660.641 517.672 660.905 517.216 660.905 516.64C660.905 516.256 660.793 515.944 660.569 515.704C660.361 515.448 659.993 515.232 659.465 515.056C658.953 514.864 658.185 514.656 657.161 514.432C655.769 514.128 654.777 513.688 654.185 513.112C653.609 512.536 653.321 511.792 653.321 510.88C653.321 510.272 653.497 509.696 653.849 509.152C654.217 508.592 654.745 508.144 655.433 507.808C656.137 507.456 656.977 507.28 657.953 507.28C658.977 507.28 659.849 507.448 660.569 507.784C661.289 508.12 661.825 508.52 662.177 508.984C662.545 509.432 662.729 509.808 662.729 510.112C662.729 510.256 662.673 510.376 662.561 510.472C662.465 510.568 662.345 510.616 662.201 510.616H661.193C661.001 510.616 660.841 510.536 660.713 510.376C660.457 510.072 660.233 509.84 660.041 509.68C659.865 509.504 659.601 509.352 659.249 509.224C658.913 509.096 658.481 509.032 657.953 509.032C657.185 509.032 656.593 509.2 656.177 509.536C655.761 509.856 655.553 510.28 655.553 510.808C655.553 511.144 655.641 511.432 655.817 511.672C655.993 511.896 656.329 512.104 656.825 512.296C657.337 512.488 658.073 512.688 659.033 512.896C660.553 513.216 661.625 513.68 662.249 514.288C662.889 514.88 663.209 515.64 663.209 516.568C663.209 517.256 663.009 517.88 662.609 518.44C662.209 519 661.617 519.44 660.833 519.76C660.065 520.08 659.145 520.24 658.073 520.24ZM669.467 520.24C668.683 520.24 667.955 520.08 667.283 519.76C666.611 519.44 666.075 519.008 665.675 518.464C665.291 517.904 665.099 517.288 665.099 516.616C665.099 515.56 665.531 514.696 666.395 514.024C667.275 513.336 668.459 512.888 669.947 512.68L673.523 512.176V511.48C673.523 509.848 672.587 509.032 670.715 509.032C670.011 509.032 669.435 509.184 668.987 509.488C668.539 509.776 668.203 510.12 667.979 510.52C667.931 510.664 667.867 510.768 667.787 510.832C667.723 510.896 667.627 510.928 667.499 510.928H666.467C666.323 510.928 666.195 510.88 666.083 510.784C665.987 510.672 665.939 510.544 665.939 510.4C665.955 510.016 666.131 509.584 666.467 509.104C666.819 508.608 667.355 508.184 668.075 507.832C668.795 507.464 669.683 507.28 670.739 507.28C672.531 507.28 673.819 507.704 674.603 508.552C675.387 509.384 675.779 510.424 675.779 511.672V519.448C675.779 519.608 675.723 519.744 675.611 519.856C675.515 519.952 675.387 520 675.227 520H674.123C673.963 520 673.827 519.952 673.715 519.856C673.619 519.744 673.571 519.608 673.571 519.448V518.416C673.219 518.928 672.707 519.36 672.035 519.712C671.363 520.064 670.507 520.24 669.467 520.24ZM669.971 518.44C671.011 518.44 671.859 518.104 672.515 517.432C673.187 516.744 673.523 515.76 673.523 514.48V513.808L670.739 514.216C669.603 514.376 668.747 514.648 668.171 515.032C667.595 515.4 667.307 515.872 667.307 516.448C667.307 517.088 667.571 517.584 668.099 517.936C668.627 518.272 669.251 518.44 669.971 518.44ZM684.341 525.28C683.029 525.28 681.973 525.056 681.173 524.608C680.373 524.176 679.805 523.68 679.469 523.12C679.133 522.56 678.949 522.056 678.917 521.608C678.901 521.448 678.949 521.312 679.061 521.2C679.189 521.088 679.325 521.032 679.469 521.032H680.621C680.765 521.032 680.885 521.064 680.981 521.128C681.077 521.208 681.157 521.344 681.221 521.536C681.413 522.048 681.725 522.488 682.157 522.856C682.605 523.24 683.293 523.432 684.221 523.432C685.405 523.432 686.277 523.176 686.837 522.664C687.397 522.168 687.677 521.28 687.677 520V518.368C687.261 518.896 686.733 519.32 686.093 519.64C685.453 519.944 684.693 520.096 683.813 520.096C682.117 520.096 680.845 519.56 679.997 518.488C679.165 517.4 678.725 516.024 678.677 514.36L678.653 513.688L678.677 513.04C678.725 511.392 679.173 510.024 680.021 508.936C680.869 507.832 682.133 507.28 683.813 507.28C685.493 507.28 686.805 507.896 687.749 509.128V508.096C687.749 507.936 687.797 507.8 687.893 507.688C688.005 507.576 688.141 507.52 688.301 507.52H689.405C689.565 507.52 689.701 507.576 689.813 507.688C689.925 507.8 689.981 507.936 689.981 508.096V519.736C689.981 523.432 688.101 525.28 684.341 525.28ZM684.293 518.176C685.381 518.176 686.205 517.816 686.765 517.096C687.325 516.376 687.629 515.52 687.677 514.528C687.693 514.384 687.701 514.104 687.701 513.688C687.701 513.288 687.693 513.016 687.677 512.872C687.629 511.88 687.325 511.024 686.765 510.304C686.221 509.584 685.397 509.224 684.293 509.224C683.157 509.224 682.333 509.576 681.821 510.28C681.309 510.984 681.029 511.912 680.981 513.064L680.957 513.688L680.981 514.336C681.029 515.472 681.309 516.4 681.821 517.12C682.333 517.824 683.157 518.176 684.293 518.176ZM693.909 505.192C693.749 505.192 693.613 505.144 693.501 505.048C693.405 504.936 693.357 504.8 693.357 504.64V503.344C693.357 503.184 693.405 503.048 693.501 502.936C693.613 502.824 693.749 502.768 693.909 502.768H695.421C695.581 502.768 695.717 502.824 695.829 502.936C695.941 503.048 695.997 503.184 695.997 503.344V504.64C695.997 504.8 695.941 504.936 695.829 505.048C695.717 505.144 695.581 505.192 695.421 505.192H693.909ZM694.101 520C693.941 520 693.805 519.952 693.693 519.856C693.597 519.744 693.549 519.608 693.549 519.448V508.072C693.549 507.912 693.597 507.784 693.693 507.688C693.805 507.576 693.941 507.52 694.101 507.52H695.253C695.413 507.52 695.541 507.576 695.637 507.688C695.749 507.784 695.805 507.912 695.805 508.072V519.448C695.805 519.608 695.749 519.744 695.637 519.856C695.541 519.952 695.413 520 695.253 520H694.101ZM699.914 520C699.754 520 699.618 519.952 699.506 519.856C699.41 519.744 699.362 519.608 699.362 519.448V508.072C699.362 507.912 699.41 507.784 699.506 507.688C699.618 507.576 699.754 507.52 699.914 507.52H701.042C701.202 507.52 701.33 507.576 701.426 507.688C701.538 507.784 701.594 507.912 701.594 508.072V509.128C702.058 508.536 702.602 508.08 703.226 507.76C703.866 507.44 704.658 507.28 705.602 507.28C707.138 507.28 708.33 507.776 709.178 508.768C710.042 509.744 710.474 511.048 710.474 512.68V519.448C710.474 519.608 710.418 519.744 710.306 519.856C710.21 519.952 710.082 520 709.922 520H708.722C708.562 520 708.426 519.952 708.314 519.856C708.218 519.744 708.17 519.608 708.17 519.448V512.8C708.17 511.664 707.89 510.784 707.33 510.16C706.786 509.536 705.994 509.224 704.954 509.224C703.946 509.224 703.146 509.544 702.554 510.184C701.962 510.808 701.666 511.68 701.666 512.8V519.448C701.666 519.608 701.61 519.744 701.498 519.856C701.402 519.952 701.274 520 701.114 520H699.914ZM719.029 525.28C717.717 525.28 716.661 525.056 715.861 524.608C715.061 524.176 714.493 523.68 714.157 523.12C713.821 522.56 713.637 522.056 713.605 521.608C713.589 521.448 713.637 521.312 713.749 521.2C713.877 521.088 714.013 521.032 714.157 521.032H715.309C715.453 521.032 715.573 521.064 715.669 521.128C715.765 521.208 715.845 521.344 715.909 521.536C716.101 522.048 716.413 522.488 716.845 522.856C717.293 523.24 717.981 523.432 718.909 523.432C720.093 523.432 720.965 523.176 721.525 522.664C722.085 522.168 722.365 521.28 722.365 520V518.368C721.949 518.896 721.421 519.32 720.781 519.64C720.141 519.944 719.381 520.096 718.501 520.096C716.805 520.096 715.533 519.56 714.685 518.488C713.853 517.4 713.413 516.024 713.365 514.36L713.341 513.688L713.365 513.04C713.413 511.392 713.861 510.024 714.709 508.936C715.557 507.832 716.821 507.28 718.501 507.28C720.181 507.28 721.493 507.896 722.437 509.128V508.096C722.437 507.936 722.485 507.8 722.581 507.688C722.693 507.576 722.829 507.52 722.989 507.52H724.093C724.253 507.52 724.389 507.576 724.501 507.688C724.613 507.8 724.669 507.936 724.669 508.096V519.736C724.669 523.432 722.789 525.28 719.029 525.28ZM718.981 518.176C720.069 518.176 720.893 517.816 721.453 517.096C722.013 516.376 722.317 515.52 722.365 514.528C722.381 514.384 722.389 514.104 722.389 513.688C722.389 513.288 722.381 513.016 722.365 512.872C722.317 511.88 722.013 511.024 721.453 510.304C720.909 509.584 720.085 509.224 718.981 509.224C717.845 509.224 717.021 509.576 716.509 510.28C715.997 510.984 715.717 511.912 715.669 513.064L715.645 513.688L715.669 514.336C715.717 515.472 715.997 516.4 716.509 517.12C717.021 517.824 717.845 518.176 718.981 518.176Z" fill="#848484"/>
</svg>
