<svg width="126" height="28" viewBox="0 0 126 28" fill="none" xmlns="http://www.w3.org/2000/svg">
<path d="M7.74271 21C7.54938 21 7.38504 20.9323 7.24971 20.797C7.11438 20.6617 7.04671 20.4973 7.04671 20.304V4.267H1.68171C1.48838 4.267 1.32404 4.19933 1.18871 4.064C1.05338 3.92867 0.98571 3.76433 0.98571 3.571V1.425C0.98571 1.21233 1.04371 1.03833 1.15971 0.902999C1.29504 0.767666 1.46904 0.699999 1.68171 0.699999H16.4717C16.6844 0.699999 16.8584 0.767666 16.9937 0.902999C17.129 1.03833 17.1967 1.21233 17.1967 1.425V3.571C17.1967 3.76433 17.129 3.92867 16.9937 4.064C16.8584 4.19933 16.6844 4.267 16.4717 4.267H11.1357V20.304C11.1357 20.4973 11.068 20.6617 10.9327 20.797C10.7974 20.9323 10.6234 21 10.4107 21H7.74271ZM23.4602 21.29C21.3142 21.29 19.6032 20.6713 18.3272 19.434C17.0705 18.1773 16.4035 16.418 16.3262 14.156L16.2972 13.431L16.3262 12.706C16.4229 10.502 17.0995 8.77167 18.3562 7.515C19.6322 6.25833 21.3335 5.63 23.4602 5.63C25.7415 5.63 27.5009 6.326 28.7382 7.718C29.9949 9.11 30.6232 10.966 30.6232 13.286V13.895C30.6232 14.0883 30.5555 14.2527 30.4202 14.388C30.2849 14.5233 30.1109 14.591 29.8982 14.591H20.2702V14.823C20.3089 15.8863 20.5989 16.7853 21.1402 17.52C21.7009 18.2353 22.4645 18.593 23.4312 18.593C24.5719 18.593 25.4902 18.1483 26.1862 17.259C26.3602 17.0463 26.4955 16.911 26.5922 16.853C26.7082 16.795 26.8725 16.766 27.0852 16.766H29.5792C29.7532 16.766 29.8982 16.824 30.0142 16.94C30.1495 17.0367 30.2172 17.1623 30.2172 17.317C30.2172 17.781 29.9369 18.332 29.3762 18.97C28.8349 19.5887 28.0519 20.13 27.0272 20.594C26.0025 21.058 24.8135 21.29 23.4602 21.29ZM26.6792 12.155V12.068C26.6792 10.9273 26.3892 10.009 25.8092 9.313C25.2485 8.617 24.4655 8.269 23.4602 8.269C22.4549 8.269 21.6719 8.617 21.1112 9.313C20.5505 10.009 20.2702 10.9273 20.2702 12.068V12.155H26.6792ZM34.2615 21C34.0682 21 33.9038 20.9323 33.7685 20.797C33.6332 20.6617 33.5655 20.4973 33.5655 20.304V1.106C33.5655 0.893332 33.6332 0.728999 33.7685 0.613C33.9038 0.477666 34.0682 0.409999 34.2615 0.409999H36.6685C36.8812 0.409999 37.0455 0.477666 37.1615 0.613C37.2968 0.728999 37.3645 0.893332 37.3645 1.106V20.304C37.3645 20.4973 37.2968 20.6617 37.1615 20.797C37.0455 20.9323 36.8812 21 36.6685 21H34.2615ZM47.5423 21.29C45.3963 21.29 43.6853 20.6713 42.4093 19.434C41.1526 18.1773 40.4856 16.418 40.4083 14.156L40.3793 13.431L40.4083 12.706C40.505 10.502 41.1816 8.77167 42.4383 7.515C43.7143 6.25833 45.4156 5.63 47.5423 5.63C49.8236 5.63 51.583 6.326 52.8203 7.718C54.077 9.11 54.7053 10.966 54.7053 13.286V13.895C54.7053 14.0883 54.6376 14.2527 54.5023 14.388C54.367 14.5233 54.193 14.591 53.9803 14.591H44.3523V14.823C44.391 15.8863 44.681 16.7853 45.2223 17.52C45.783 18.2353 46.5466 18.593 47.5133 18.593C48.654 18.593 49.5723 18.1483 50.2683 17.259C50.4423 17.0463 50.5776 16.911 50.6743 16.853C50.7903 16.795 50.9546 16.766 51.1673 16.766H53.6613C53.8353 16.766 53.9803 16.824 54.0963 16.94C54.2316 17.0367 54.2993 17.1623 54.2993 17.317C54.2993 17.781 54.019 18.332 53.4583 18.97C52.917 19.5887 52.134 20.13 51.1093 20.594C50.0846 21.058 48.8956 21.29 47.5423 21.29ZM50.7613 12.155V12.068C50.7613 10.9273 50.4713 10.009 49.8913 9.313C49.3306 8.617 48.5476 8.269 47.5423 8.269C46.537 8.269 45.754 8.617 45.1933 9.313C44.6326 10.009 44.3523 10.9273 44.3523 12.068V12.155H50.7613ZM64.4336 27.38C62.7129 27.38 61.3209 27.09 60.2576 26.51C59.1943 25.9493 58.4403 25.3017 57.9956 24.567C57.5509 23.8323 57.3286 23.204 57.3286 22.682C57.3286 22.508 57.3963 22.3533 57.5316 22.218C57.6863 22.0827 57.8506 22.015 58.0246 22.015H60.5476C60.7216 22.015 60.8666 22.0537 60.9826 22.131C61.1179 22.2277 61.2243 22.392 61.3016 22.624C61.4949 23.146 61.8043 23.581 62.2296 23.929C62.6743 24.2963 63.3606 24.48 64.2886 24.48C65.4486 24.48 66.2993 24.219 66.8406 23.697C67.4013 23.175 67.6816 22.276 67.6816 21V19.028C66.6183 20.2847 65.1296 20.913 63.2156 20.913C61.2049 20.913 59.6873 20.2943 58.6626 19.057C57.6573 17.8197 57.1159 16.157 57.0386 14.069L57.0096 13.286L57.0386 12.503C57.1159 10.4537 57.6669 8.80067 58.6916 7.544C59.7163 6.268 61.2243 5.63 63.2156 5.63C64.2403 5.63 65.1393 5.82333 65.9126 6.21C66.6859 6.59667 67.3336 7.12833 67.8556 7.805V6.645C67.8556 6.43233 67.9233 6.25833 68.0586 6.123C68.1939 5.98767 68.3583 5.92 68.5516 5.92H70.9006C71.0939 5.92 71.2583 5.99733 71.3936 6.152C71.5289 6.28733 71.5966 6.45167 71.5966 6.645L71.6256 20.623C71.6256 22.769 71.0263 24.4317 69.8276 25.611C68.6289 26.7903 66.8309 27.38 64.4336 27.38ZM64.2886 17.839C65.3906 17.839 66.2123 17.491 66.7536 16.795C67.3143 16.099 67.6236 15.2483 67.6816 14.243C67.7009 14.0883 67.7106 13.7693 67.7106 13.286C67.7106 12.822 67.7009 12.5127 67.6816 12.358C67.6236 11.3333 67.3143 10.473 66.7536 9.777C66.2123 9.081 65.3906 8.733 64.2886 8.733C62.2006 8.733 61.0986 10.0187 60.9826 12.59L60.9536 13.286C60.9536 14.6587 61.1953 15.7607 61.6786 16.592C62.1813 17.4233 63.0513 17.839 64.2886 17.839ZM76.0197 21C75.8264 21 75.6621 20.9323 75.5267 20.797C75.3914 20.6617 75.3237 20.4973 75.3237 20.304V6.645C75.3237 6.45167 75.3914 6.28733 75.5267 6.152C75.6621 5.99733 75.8264 5.92 76.0197 5.92H78.3687C78.5814 5.92 78.7554 5.98767 78.8907 6.123C79.0261 6.25833 79.0937 6.43233 79.0937 6.645V7.834C79.5577 7.21533 80.1377 6.74167 80.8337 6.413C81.5491 6.08433 82.3611 5.92 83.2697 5.92H84.4587C84.6714 5.92 84.8357 5.98767 84.9517 6.123C85.0871 6.239 85.1547 6.40333 85.1547 6.616V8.704C85.1547 8.89733 85.0871 9.06167 84.9517 9.197C84.8357 9.33233 84.6714 9.4 84.4587 9.4H82.1967C81.2881 9.4 80.5727 9.661 80.0507 10.183C79.5287 10.705 79.2677 11.4203 79.2677 12.329V20.304C79.2677 20.4973 79.2001 20.6617 79.0647 20.797C78.9294 20.9323 78.7554 21 78.5427 21H76.0197ZM91.4039 21.29C90.4179 21.29 89.5093 21.0967 88.6779 20.71C87.8659 20.304 87.2183 19.7627 86.7349 19.086C86.2709 18.4093 86.0389 17.665 86.0389 16.853C86.0389 15.5383 86.5706 14.475 87.6339 13.663C88.6973 12.851 90.1569 12.3 92.0129 12.01L95.9859 11.43V10.821C95.9859 9.97033 95.7733 9.33233 95.3479 8.907C94.9226 8.48167 94.2363 8.269 93.2889 8.269C92.6509 8.269 92.1289 8.39467 91.7229 8.646C91.3363 8.878 91.0269 9.11 90.7949 9.342C90.5629 9.59333 90.4083 9.75767 90.3309 9.835C90.2536 10.067 90.1086 10.183 89.8959 10.183H87.6629C87.4889 10.183 87.3343 10.125 87.1989 10.009C87.0829 9.893 87.0249 9.73833 87.0249 9.545C87.0443 9.06167 87.2763 8.51067 87.7209 7.892C88.1849 7.27333 88.8906 6.74167 89.8379 6.297C90.7853 5.85233 91.9453 5.63 93.3179 5.63C95.5993 5.63 97.2619 6.14233 98.3059 7.167C99.3499 8.19167 99.8719 9.53533 99.8719 11.198V20.304C99.8719 20.4973 99.8043 20.6617 99.6689 20.797C99.5529 20.9323 99.3886 21 99.1759 21H96.8269C96.6336 21 96.4693 20.9323 96.3339 20.797C96.1986 20.6617 96.1309 20.4973 96.1309 20.304V19.173C95.7056 19.7917 95.0966 20.304 94.3039 20.71C93.5306 21.0967 92.5639 21.29 91.4039 21.29ZM92.3899 18.535C93.4533 18.535 94.3233 18.187 94.9999 17.491C95.6766 16.795 96.0149 15.78 96.0149 14.446V13.837L93.1149 14.301C91.9936 14.475 91.1429 14.7553 90.5629 15.142C90.0023 15.5287 89.7219 16.0023 89.7219 16.563C89.7219 17.1817 89.9829 17.665 90.5049 18.013C91.0269 18.361 91.6553 18.535 92.3899 18.535ZM104.123 21C103.93 21 103.766 20.9323 103.63 20.797C103.495 20.6617 103.427 20.4973 103.427 20.304V6.616C103.427 6.42267 103.495 6.25833 103.63 6.123C103.766 5.98767 103.93 5.92 104.123 5.92H106.385C106.579 5.92 106.743 5.98767 106.878 6.123C107.014 6.25833 107.081 6.42267 107.081 6.616V7.602C108.087 6.28733 109.488 5.63 111.286 5.63C113.432 5.63 114.931 6.49033 115.781 8.211C116.245 7.43767 116.903 6.819 117.753 6.355C118.604 5.87167 119.522 5.63 120.508 5.63C122.094 5.63 123.389 6.17133 124.394 7.254C125.4 8.33667 125.902 9.91233 125.902 11.981V20.304C125.902 20.4973 125.835 20.6617 125.699 20.797C125.583 20.9323 125.419 21 125.206 21H122.828C122.635 21 122.471 20.9323 122.335 20.797C122.2 20.6617 122.132 20.4973 122.132 20.304V12.213C122.132 10.995 121.871 10.1153 121.349 9.574C120.847 9.01333 120.17 8.733 119.319 8.733C118.565 8.733 117.918 9.01333 117.376 9.574C116.854 10.1347 116.593 11.0143 116.593 12.213V20.304C116.593 20.4973 116.526 20.6617 116.39 20.797C116.255 20.9323 116.091 21 115.897 21H113.519C113.326 21 113.162 20.9323 113.026 20.797C112.891 20.6617 112.823 20.4973 112.823 20.304V12.213C112.823 10.995 112.553 10.1153 112.011 9.574C111.489 9.01333 110.822 8.733 110.01 8.733C109.237 8.733 108.58 9.01333 108.038 9.574C107.516 10.1347 107.255 11.0143 107.255 12.213V20.304C107.255 20.4973 107.188 20.6617 107.052 20.797C106.917 20.9323 106.753 21 106.559 21H104.123Z" fill="#7E98DF"/>
</svg>
